<?xml version="1.0" encoding="UTF-8" standalone="no"?>
<svg width="128px" height="128px" viewBox="0 0 128 128" version="1.1" xmlns="http://www.w3.org/2000/svg" xmlns:xlink="http://www.w3.org/1999/xlink">
    <!-- Generator: Sketch 3.6.1 (26313) - http://www.bohemiancoding.com/sketch -->
    <title>Artboard</title>
    <desc>Created with Sketch.</desc>
    <defs></defs>
    <g id="Page-1" stroke="none" stroke-width="1" fill="none" fill-rule="evenodd">
        <g id="Artboard">
            <rect id="bound" x="0" y="-5" width="128" height="128"></rect>
            <g id="icon" transform="translate(65.500000, 60.000000) scale(-1, 1) translate(-65.500000, -60.000000) translate(-4.000000, -8.000000)">
                <g id="apple" transform="translate(41.242171, 92.800309) rotate(-6.000000) translate(-41.242171, -92.800309) translate(20.242171, 69.300309)">
                    <path d="M26.3688312,8.17391304 C24.2837403,8.17391304 22.3041247,8.63676087 20.5090909,9.45721739 C18.7140571,8.63676087 16.7344416,8.17391304 14.6493506,8.17391304 C6.5590026,8.17391304 0,15.035913 0,23.5 C0,31.964087 7.53562597,47 15.625974,47 C17.3829195,47 19.0207169,46.2898913 20.5090909,45.0934348 C21.9974649,46.2898913 23.6352623,47 25.3922078,47 C33.4825558,47 41.0181818,31.964087 41.0181818,23.5 C41.0181818,15.035913 34.4591792,8.17391304 26.3688312,8.17391304 L26.3688312,8.17391304 Z" id="Shape" fill="#E86C60"></path>
                    <path d="M18.2999688,3.70073913 C15.3300571,0.48226087 10.896187,0.230913043 10.7086753,0.22273913 L9.6129039,0.169608696 L9.68908052,1.31497826 C9.70177662,1.51013043 10.0416416,6.12532609 13.0008104,9.22119565 C15.9590026,12.3160435 20.371387,12.6716087 20.5579221,12.6848913 L20.6331221,11.5630217 L21.5999792,11.4884348 C21.5863065,11.3024783 21.2464416,6.89367391 18.2999688,3.70073913 L18.2999688,3.70073913 Z" id="Shape" fill="#88C057"></path>
                    <path d="M20.5090909,18.3913043 C19.9699948,18.3913043 19.5324675,17.9335652 19.5324675,17.3695652 C19.5324675,8.45080435 20.4426805,3.85093478 25.8346182,0.166543478 C26.2858182,-0.141 26.8913247,-0.00919565217 27.1862649,0.463869565 C27.4821818,0.935913043 27.3542442,1.5693913 26.9030442,1.87795652 C22.6498494,4.78276087 21.4857143,8.1126087 21.4857143,17.3695652 C21.4857143,17.9335652 21.048187,18.3913043 20.5090909,18.3913043 L20.5090909,18.3913043 Z" id="Shape" fill="#796E79"></path>
                    <path d="M20.4299844,18.4086739 C18.0167481,18.4086739 15.8457143,17.6505435 13.9774338,16.1547174 C13.5486961,15.8124348 13.4676364,15.1707826 13.7948052,14.7222391 C14.121974,14.2736957 14.7362701,14.1878696 15.1640312,14.5311739 C16.6846338,15.7480652 18.4562286,16.3641739 20.430961,16.3641739 C22.4056935,16.3641739 24.1772883,15.7470435 25.6978909,14.5311739 C26.1276052,14.189913 26.7399481,14.2747174 27.0661403,14.7222391 C27.3942857,15.1697609 27.3122494,15.811413 26.8835117,16.1547174 C25.0132779,17.6495217 22.8432208,18.4086739 20.4299844,18.4086739 L20.4299844,18.4086739 Z" id="Shape" fill="#C94F49"></path>
                </g>
                <g id="branch" transform="translate(69.530997, 68.246703) rotate(-15.000000) translate(-69.530997, -68.246703) translate(13.030997, 13.746703)">
                    <path d="M52.8875105,108.665387 C42.9258862,108.665387 32.9817715,97.5732567 32.5336478,97.0671189 C31.6549102,96.07521 31.6523978,94.5707661 32.5261107,93.5762983 C32.8491033,93.2091239 40.5450115,84.5610717 50.6793993,82.7531906 C62.5987958,80.6227328 75.2667742,89.4250494 75.8025229,89.7998744 C76.9416491,90.601825 77.2495675,92.181495 76.4984989,93.3672006 C76.1680205,93.8873861 68.2543058,106.126969 55.1031589,108.472896 C54.3671133,108.604183 53.6260685,108.665387 52.8875105,108.665387 L52.8875105,108.665387 Z" id="Shape" fill="#BEECA0"></path>
                    <path d="M49.4251145,67.0635461 C48.7316253,67.0635461 48.0431607,66.7792222 47.5374322,66.2195306 C47.2094662,65.8548889 39.4835122,57.1635183 40.332204,46.2945072 C41.0181818,37.5355611 52.2716482,31.3125 53.550954,30.6316789 C54.7151013,30.0171539 56.1446362,30.3894461 56.870658,31.4986461 C57.0859522,31.8263144 62.1231131,39.6290456 61.4696935,48.0080489 C60.6986029,57.8583611 51.4955585,66.0805672 51.1024762,66.4260694 C50.6193076,66.853195 50.0209549,67.0635461 49.4251145,67.0635461 L49.4251145,67.0635461 Z" id="Shape" fill="#BEECA0"></path>
                    <path d="M17.1368067,44.30048 C13.8997031,44.30048 10.4347947,43.6413311 7.89620509,41.4343678 C0.570819273,35.0659722 0.0650907273,24.5424633 0.0475810909,24.0975039 C-0.00999818182,22.6873994 1.04398964,21.4863928 2.42594345,21.3856822 C2.89160236,21.35508 13.8496353,20.629635 20.494068,26.4039244 C26.1445789,31.3163383 27.8044309,39.537265 27.872034,39.8840467 C28.1273978,41.1921611 27.3738169,42.4862278 26.1245569,42.8852839 C25.4160447,43.1122156 21.4829651,44.30048 17.1368067,44.30048 L17.1368067,44.30048 Z" id="Shape" fill="#BEECA0"></path>
                    <path d="M28.6957047,30.9873906 C27.5090231,30.9873906 26.4500105,30.1459078 26.19216,28.9245083 C26.0945111,28.4616889 23.856354,17.5047094 28.5405022,10.0003239 C32.5236496,3.61406833 40.2821618,0.786208889 40.6101278,0.668917778 C41.8468773,0.22905 43.2113215,0.805348333 43.7746293,2.01144667 C44.3329124,3.20608222 49.1096847,13.8812967 44.9162422,20.5990328 C39.7489255,28.878605 29.5920033,30.8637022 29.1613893,30.94402 C29.0061355,30.9733689 28.8484205,30.9873906 28.6957047,30.9873906 L28.6957047,30.9873906 Z" id="Shape" fill="#BEECA0"></path>
                    <path d="M93.8306035,93.0025589 C93.6979096,93.0025589 93.5677282,92.9923494 93.4325476,92.9719567 C92.7215487,92.8584778 75.9752864,90.0918228 71.7092416,79.9737672 C66.4367645,67.4791828 72.16239,54.03606 72.4102424,53.4699711 C72.9710378,52.1797167 74.43813,51.5741217 75.7224349,52.1108617 C76.3233,52.3594656 90.4908775,58.3543156 95.2626507,69.6682861 C99.3233995,79.2941994 96.4293104,90.5903361 96.304128,91.0671511 C96.0011831,92.2222806 94.9722164,93.0025589 93.8306035,93.0025589 L93.8306035,93.0025589 Z" id="Shape" fill="#BEECA0"></path>
                    <path d="M110.238876,98.2247811 C60.7636936,98.2247811 20.5116033,57.2272817 20.5116033,6.83589222 C20.5116033,5.39390611 21.6582409,4.22478111 23.0752396,4.22478111 C24.4922384,4.22478111 25.638876,5.39390611 25.638876,6.83589222 C25.638876,54.3484272 63.5902053,93.0025589 110.238876,93.0025589 C111.655875,93.0025589 112.802512,94.1716839 112.802512,95.61367 C112.802512,97.0556561 111.655875,98.2247811 110.238876,98.2247811 L110.238876,98.2247811 Z" id="Shape" fill="#B5AEB5"></path>
                </g>
            </g>
        </g>
    </g>
</svg>