<?xml version="1.0" encoding="UTF-8" standalone="no"?>
<svg width="128px" height="128px" viewBox="0 0 128 128" version="1.1" xmlns="http://www.w3.org/2000/svg" xmlns:xlink="http://www.w3.org/1999/xlink">
    <!-- Generator: Sketch 3.6.1 (26313) - http://www.bohemiancoding.com/sketch -->
    <title>Artboard 1</title>
    <desc>Created with Sketch.</desc>
    <defs></defs>
    <g id="Page-1" stroke="none" stroke-width="1" fill="none" fill-rule="evenodd">
        <g id="Artboard-1">
            <g id="Group" transform="translate(-0.033003, 33.075193)" fill="#B3A8B3">
                <path d="M24.4195808,4.05012834 L2.03496507,4.05012834 C0.909629384,4.05012834 0,3.14492466 0,2.02506417 C0,0.905203684 0.909629384,0 2.03496507,0 L24.4195808,0 C25.5449165,0 26.4545459,0.905203684 26.4545459,2.02506417 C26.4545459,3.14492466 25.5449165,4.05012834 24.4195808,4.05012834 L24.4195808,4.05012834 Z" id="Shape"></path>
                <path d="M24.4195808,20.2506417 L10.1748253,20.2506417 C9.04948965,20.2506417 8.13986026,19.345438 8.13986026,18.2255775 C8.13986026,17.105717 9.04948965,16.2005134 10.1748253,16.2005134 L24.4195808,16.2005134 C25.5449165,16.2005134 26.4545459,17.105717 26.4545459,18.2255775 C26.4545459,19.345438 25.5449165,20.2506417 24.4195808,20.2506417 L24.4195808,20.2506417 Z" id="Shape"></path>
                <path d="M24.4195808,36.4511551 L18.3146856,36.4511551 C17.1893499,36.4511551 16.2797205,35.5459514 16.2797205,34.4260909 C16.2797205,33.3062304 17.1893499,32.4010267 18.3146856,32.4010267 L24.4195808,32.4010267 C25.5449165,32.4010267 26.4545459,33.3062304 26.4545459,34.4260909 C26.4545459,35.5459514 25.5449165,36.4511551 24.4195808,36.4511551 L24.4195808,36.4511551 Z" id="Shape"></path>
            </g>
            <g id="shopping-color_delivery" transform="translate(34.561403, 27.000000)">
                <g id="Group" transform="translate(-0.000000, 0.000000)">
                    <path d="M92.4830573,36.6637868 L85.1795677,33.0308217 L81.3375537,17.7334869 C81.1116726,16.8323334 80.2976865,16.2005134 79.3636376,16.2005134 L59.0139869,16.2005134 C57.8906862,16.2005134 56.9790218,17.1077421 56.9790218,18.2255775 L56.9790218,50.6266043 L-1.42108547e-14,50.6266043 L-1.42108547e-14,52.6516684 C-1.42108547e-14,54.8893643 1.82129373,56.7017968 4.06993013,56.7017968 L91.573428,56.7017968 C92.6967287,56.7017968 93.608393,55.794568 93.608393,54.6767326 L93.608393,38.4762192 C93.608393,37.7087199 93.1729105,37.0080477 92.4830573,36.6637868 L92.4830573,36.6637868 Z" id="Shape" fill="#B3A8B3"></path>
                    <path d="M81.3355187,34.4260909 L77.7743298,20.2506417 L65.1188821,20.2506417 L65.1188821,34.4260909 L81.3355187,34.4260909 Z" id="Shape" fill="#E6E6E6"></path>
                    <path d="M0,4.05012834 L0,50.6266043 L61.048952,50.6266043 L61.048952,4.05012834 C61.048952,1.81243243 59.2276582,0 56.9790218,0 L4.06993013,0 C1.82129373,0 0,1.81243243 0,4.05012834 L0,4.05012834 Z" id="Shape" fill="#5E4C5E"></path>
                    <path d="M61.048952,58.7268609 C61.048952,52.0259236 66.525043,46.5764759 73.2587424,46.5764759 C79.9924418,46.5764759 85.4685328,52.0259236 85.4685328,58.7268609 C85.4685328,65.4277983 79.9924418,70.877246 73.2587424,70.877246 C66.525043,70.877246 61.048952,65.4277983 61.048952,58.7268609 Z" id="Shape" fill="#766376"></path>
                    <path d="M73.2587424,64.8020535 C69.8929101,64.8020535 67.1538472,62.0763171 67.1538472,58.7268609 C67.1538472,55.3774048 69.8929101,52.6516684 73.2587424,52.6516684 C76.6245746,52.6516684 79.3636376,55.3774048 79.3636376,58.7268609 C79.3636376,62.0763171 76.6245746,64.8020535 73.2587424,64.8020535 L73.2587424,64.8020535 Z" id="Shape" fill="#DDD4DD"></path>
                    <path d="M18.3146856,70.877246 C11.5809862,70.877246 6.1048952,65.4277983 6.1048952,58.7268609 C6.1048952,52.0259236 11.5809862,46.5764759 18.3146856,46.5764759 C25.048385,46.5764759 30.524476,52.0259236 30.524476,58.7268609 C30.524476,65.4277983 25.048385,70.877246 18.3146856,70.877246 L18.3146856,70.877246 Z" id="Shape" fill="#766476"></path>
                    <path d="M18.3146856,64.8020535 C14.9488534,64.8020535 12.2097904,62.0763171 12.2097904,58.7268609 C12.2097904,55.3774048 14.9488534,52.6516684 18.3146856,52.6516684 C21.6805178,52.6516684 24.4195808,55.3774048 24.4195808,58.7268609 C24.4195808,62.0763171 21.6805178,64.8020535 18.3146856,64.8020535 L18.3146856,64.8020535 Z" id="Shape" fill="#DCD3DC"></path>
                    <path d="M93.608393,52.6516684 L91.573428,52.6516684 C90.4501272,52.6516684 89.5384629,51.7444397 89.5384629,50.6266043 L89.5384629,46.5764759 C89.5384629,45.4586405 90.4501272,44.5514117 91.573428,44.5514117 L93.608393,44.5514117 L93.608393,52.6516684 L93.608393,52.6516684 Z" id="Shape" fill="#85FA75"></path>
                    <g id="logo" transform="translate(17.000000, 11.000000)">
                        <path d="M14,-2.1875e-05 C21.7321563,-2.1875e-05 28,6.26782188 28,13.9999781 C28,21.7321344 21.7321563,27.9999781 14,27.9999781 C6.26784375,27.9999781 0,21.7321344 0,13.9999781 C0,6.26782188 6.26784375,-2.1875e-05 14,-2.1875e-05" id="Fill-1" fill="#372937"></path>
                        <path d="M15.8112719,13.4706031 C15.0609594,14.5337281 14.2406469,15.8702906 13.1250219,17.0624781 C10.4387719,19.9324781 8.31252188,20.9999781 8.31252188,20.9999781 C8.31252188,20.9999781 9.74752188,18.2174781 13.1250219,14.8749781 C16.4368969,11.5981031 17.2812719,11.5937281 17.2812719,11.5937281 C17.2812719,11.5937281 16.5812719,12.3812281 15.8112719,13.4706031 M11.5937719,10.0624781 C6.42252188,15.6406031 6.78127188,21.8749781 6.78127188,21.8749781 L5.58033438,23.0759156 L4.43408438,24.2221656 C4.78845938,24.5568531 5.16252188,24.8718531 5.55189688,25.1671656 C5.94564688,24.8893531 6.65002188,24.3709156 7.21877188,23.8437281 C7.89689688,23.2137281 8.31252188,22.5312281 8.31252188,22.5312281 C8.31252188,22.5312281 14.0678344,22.2687281 18.5937719,17.0624781 C22.4809594,12.5890406 22.5312719,5.46872813 22.5312719,5.46872813 C22.5312719,5.46872813 16.8022094,4.44497812 11.5937719,10.0624781" id="Fill-4" fill="#85FA75"></path>
                    </g>
                </g>
            </g>
        </g>
    </g>
</svg>