<?xml version="1.0" encoding="UTF-8" standalone="no"?>
<svg width="128px" height="128px" viewBox="0 0 128 128" version="1.1" xmlns="http://www.w3.org/2000/svg" xmlns:xlink="http://www.w3.org/1999/xlink">
    <!-- Generator: Sketch 3.6.1 (26313) - http://www.bohemiancoding.com/sketch -->
    <title>Artboard 1</title>
    <desc>Created with Sketch.</desc>
    <defs></defs>
    <g id="Page-1" stroke="none" stroke-width="1" fill="none" fill-rule="evenodd">
        <g id="Artboard-1">
            <g id="Group" transform="translate(31.522158, 78.889783) scale(-1, 1) rotate(-344.000000) translate(-31.522158, -78.889783) translate(7.131896, 49.587757)">
                <path d="M24.4102623,16.562015 C23.9075662,16.562015 23.4613527,16.2060973 23.3675529,15.6989684 C23.3198764,15.4417985 22.236217,9.36546276 24.8678878,5.58202331 C27.4990323,1.79858387 33.6086646,0.650594169 33.8672656,0.603277766 C34.141425,0.55184634 34.4295638,0.612539754 34.66122,0.771980999 C34.8928761,0.931422243 35.0519776,1.1741959 35.1022473,1.44884507 C35.1499238,1.70601494 36.2335831,7.78338265 33.6019252,11.5657901 C30.9712942,15.3481977 24.8611484,16.4972193 24.6025346,16.5445357 C24.5377463,16.556868 24.4734844,16.562015 24.4102623,16.562015 L24.4102623,16.562015 Z" id="Shape" fill="#88C057"></path>
                <path d="M24.3890043,20.3840185 C23.7189524,20.3840185 23.1548185,19.867704 23.1096965,19.1946237 C22.9793241,17.2674422 22.4415188,14.3486928 20.6200284,11.3876338 C18.4826198,7.91274472 15.5942993,5.97561323 13.5477766,4.96163571 C12.91345,4.64811677 12.6552085,3.88296441 12.9717428,3.25342948 C13.289535,2.62389456 14.0598822,2.3651067 14.6935798,2.68237121 C17.0415918,3.8444004 20.3561386,6.06892107 22.8113394,10.0588888 C24.4679902,12.7524585 25.4570924,15.852855 25.6708281,19.0254236 C25.7184661,19.727118 25.1831769,20.334256 24.4761417,20.3815341 C24.4466808,20.3827699 24.4178361,20.3840185 24.3890043,20.3840185 L24.3890043,20.3840185 Z" id="Shape" fill="#8E6E62"></path>
                <path d="M24.3902623,58.604053 C15.8606923,58.604053 0,44.8525483 0,31.8500288 C0,23.007913 4.33185179,16.6715027 11.3056953,15.3116466 C14.2435281,14.7380912 17.1362388,15.7582986 19.6867157,16.6578071 C21.4060367,17.2637093 23.0300944,17.8360161 24.3902623,17.8360161 C25.7504302,17.8360161 27.3744879,17.2637093 29.0938088,16.6578199 C31.6442857,15.7595471 34.5344805,14.7393525 37.4748293,15.3116593 C44.4486728,16.6715027 48.7805246,23.007913 48.7805246,31.8500288 C48.7805246,45.1188018 33.1329518,58.604053 24.3902623,58.604053 L24.3902623,58.604053 Z" id="Shape" fill="#E86C60"></path>
                <path d="M14.1206782,33.12403 C13.4117559,33.12403 12.8369801,32.5542075 12.8369801,31.8500288 L12.8369801,29.3020265 C12.8369801,28.5978479 13.4117559,28.0280254 14.1206782,28.0280254 C14.8296004,28.0280254 15.4043762,28.5978479 15.4043762,29.3020265 L15.4043762,31.8500288 C15.4043762,32.5542075 14.8296004,33.12403 14.1206782,33.12403 L14.1206782,33.12403 Z" id="Shape" fill="#C94F49"></path>
                <path d="M19.2554702,45.8640415 C18.546548,45.8640415 17.9717722,45.294219 17.9717722,44.5900404 L17.9717722,42.0420381 C17.9717722,41.3378594 18.546548,40.7680369 19.2554702,40.7680369 C19.9643925,40.7680369 20.5391682,41.3378594 20.5391682,42.0420381 L20.5391682,44.5900404 C20.5391682,45.294219 19.9643925,45.8640415 19.2554702,45.8640415 L19.2554702,45.8640415 Z" id="Shape" fill="#C94F49"></path>
                <path d="M24.3902623,35.6720323 C23.6813401,35.6720323 23.1065643,35.1022098 23.1065643,34.3980311 L23.1065643,31.8500288 C23.1065643,31.1458502 23.6813401,30.5760277 24.3902623,30.5760277 C25.0991845,30.5760277 25.6739603,31.1458502 25.6739603,31.8500288 L25.6739603,34.3980311 C25.6739603,35.1022098 25.0991845,35.6720323 24.3902623,35.6720323 L24.3902623,35.6720323 Z" id="Shape" fill="#C94F49"></path>
                <path d="M34.6598464,33.12403 C33.9509242,33.12403 33.3761484,32.5542075 33.3761484,31.8500288 L33.3761484,29.3020265 C33.3761484,28.5978479 33.9509242,28.0280254 34.6598464,28.0280254 C35.3687686,28.0280254 35.9435444,28.5978479 35.9435444,29.3020265 L35.9435444,31.8500288 C35.9435444,32.5542075 35.3687686,33.12403 34.6598464,33.12403 L34.6598464,33.12403 Z" id="Shape" fill="#C94F49"></path>
                <path d="M29.5250543,45.8640415 C28.8161321,45.8640415 28.2413563,45.294219 28.2413563,44.5900404 L28.2413563,42.0420381 C28.2413563,41.3378594 28.8161321,40.7680369 29.5250543,40.7680369 C30.2339766,40.7680369 30.8087524,41.3378594 30.8087524,42.0420381 L30.8087524,44.5900404 C30.8087524,45.294219 30.2339766,45.8640415 29.5250543,45.8640415 L29.5250543,45.8640415 Z" id="Shape" fill="#C94F49"></path>
            </g>
            <g id="food-color_broccoli" transform="translate(40.000000, 7.000000)">
                <g id="Group">
                    <path d="M16.6318976,35.6438161 C24.5535616,47.6562329 24.32,57.4412319 24.32,57.4412319 L34.56,57.4412319 C34.56,57.4412319 32.5333376,42.6554375 44.452608,34.0407335 L33.28,25.5294364 L19.2,29.3588518 L16.6318976,35.6438161 L16.6318976,35.6438161 Z" id="Shape" fill="#9EDB9E"></path>
                    <path d="M26.88,40.8470982 C20.9124992,40.8470982 15.381248,37.5979541 12.4387456,32.4683883 C11.3325056,32.9420742 10.1500032,33.1882673 8.96,33.1882673 C4.0199936,33.1882673 0,29.1799671 0,24.2529646 C0,21.6819461 1.1287552,19.238077 3.058752,17.5483729 C2.7237504,16.3261256 2.56,15.1718122 2.56,14.04119 C2.56,6.29883954 8.8762496,0 16.64,0 C21.0300032,0 25.0762496,2.01567665 27.736256,5.46052944 C30.021248,3.57574221 32.8475008,2.55294364 35.84,2.55294364 C41.9712512,2.55294364 47.162496,6.89781118 48.3374976,12.8264228 C54.3312512,13.3580734 58.88,18.1859834 58.88,24.2529646 C58.88,30.5873283 53.7124992,35.7412109 47.36,35.7412109 C44.936256,35.7412109 42.602496,34.9777021 40.6487552,33.5666008 C37.5675008,38.0922167 32.421248,40.8470982 26.88,40.8470982 L26.88,40.8470982 Z" id="Shape" fill="#4DA34D"></path>
                </g>
            </g>
            <g id="food-color_carrot" transform="translate(63.000000, 64.000000)">
                <g id="Group">
                    <path d="M47.5074944,8.69347515 C47.3299968,8.69347515 47.1493632,8.65732547 46.9768704,8.57879692 C46.3337472,8.2858594 46.0499968,7.52919244 46.343744,6.88721647 C48.4324992,2.31734523 52.2200064,0 57.6,0 C58.30688,0 58.88,0.570927551 58.88,1.27647182 C58.88,1.98201609 58.30688,2.55294364 57.6,2.55294364 C53.2518784,2.55294364 50.3318784,4.31682346 48.6724992,7.94679019 C48.4581248,8.41673606 47.9931264,8.69347515 47.5074944,8.69347515 L47.5074944,8.69347515 Z" id="Shape" fill="#88C057"></path>
                    <path d="M7.05312,56.1622709 C5.2387456,56.1622709 3.4331264,55.469185 2.0656256,54.1054536 L2.0656256,54.1054536 C-0.4568704,51.5899106 -0.6968704,47.5847249 1.50688,44.7887028 L30.2599936,8.2945777 C32.490624,5.4636568 35.836864,3.71722635 39.4406144,3.5015792 C43.05312,3.28591929 46.5768704,4.62472122 49.129984,7.17018474 C51.6830976,9.71564825 53.0237312,13.2371659 52.8087296,16.830983 C52.5931008,20.426051 50.8412288,23.7630674 48.001856,25.9881748 L11.4075008,54.6614209 C10.1237504,55.6673828 8.5856256,56.1622709 7.05312,56.1622709 L7.05312,56.1622709 Z" id="Shape" fill="#EA9860"></path>
                    <path d="M11.52,44.6765137 C11.1924992,44.6765137 10.8649984,44.5518534 10.6150016,44.3025457 L6.53312,40.2313027 C6.0331264,39.7326873 6.0331264,38.9249104 6.53312,38.4262949 C7.0331136,37.9276795 7.8431232,37.9276795 8.3431168,38.4262949 L12.4249856,42.497538 C12.9249792,42.9961534 12.9249792,43.8039303 12.4249856,44.3025457 C12.1750016,44.5518534 11.8475008,44.6765137 11.52,44.6765137 L11.52,44.6765137 Z" id="Shape" fill="#87613E"></path>
                    <path d="M32,21.7000209 C31.6724992,21.7000209 31.3449984,21.5753607 31.0950016,21.326053 L25.525632,16.124175 C25.0256384,15.6255596 25.0256384,14.8177827 25.525632,14.3191673 C26.0256256,13.8205519 26.8356352,13.8205519 27.3356288,14.3191673 L32.9049984,19.5210452 C33.404992,20.0196607 33.404992,20.8274376 32.9049984,21.326053 C32.6550016,21.5753607 32.3275008,21.7000209 32,21.7000209 L32,21.7000209 Z" id="Shape" fill="#87613E"></path>
                    <path d="M28.8925056,40.6152399 C28.5650048,40.6152399 28.237504,40.4905796 27.9875072,40.2412719 L23.4150016,35.7412109 C22.915008,35.2425955 22.915008,34.4348186 23.4150016,33.9362032 C23.9149952,33.4375878 24.7250048,33.4375878 25.2249984,33.9362032 L29.797504,38.4362642 C30.2974976,38.9348796 30.2974976,39.7426565 29.797504,40.2412719 C29.5474944,40.4905796 29.2199936,40.6152399 28.8925056,40.6152399 L28.8925056,40.6152399 Z" id="Shape" fill="#87613E"></path>
                </g>
            </g>
        </g>
    </g>
</svg>